<svg version="1.1" id="Layer_1" xmlns="http://www.w3.org/2000/svg" xmlns:xlink="http://www.w3.org/1999/xlink" x="0px" y="0px"
	 width="100%" viewBox="0 0 1000 617" enable-background="new 0 0 1000 617" xml:space="preserve">
<path fill="#020202" opacity="1.000000" stroke="none" 
	d="
M741.000000,618.000000 
	C494.000061,618.000000 247.500153,618.000000 1.000165,618.000000 
	C1.000110,412.333466 1.000110,206.666931 1.000055,1.000303 
	C334.333099,1.000202 667.666199,1.000202 1000.999451,1.000101 
	C1000.999634,206.666367 1000.999634,412.332733 1000.999817,617.999512 
	C914.500000,618.000000 828.000000,618.000000 741.000000,618.000000 
M75.034180,184.580795 
	C53.750038,190.974731 32.465897,197.368652 10.957809,203.829865 
	C16.445784,220.739914 21.664427,236.820084 26.931347,253.049011 
	C28.543287,252.660553 29.499464,252.468033 30.433823,252.199570 
	C185.560715,207.627625 340.682678,163.038544 495.839417,118.570740 
	C498.510132,117.805321 501.788788,117.843323 504.467194,118.611015 
	C655.933960,162.025421 807.366821,205.558105 958.804199,249.075150 
	C964.042725,250.580521 969.292664,252.046371 975.063171,253.679459 
	C980.435425,237.061996 985.669861,220.870682 990.973083,204.466522 
	C988.749329,203.744766 987.194092,203.206818 985.619263,202.733688 
	C905.870361,178.773727 826.120483,154.816666 746.369019,130.865021 
	C682.711243,111.746780 619.060425,92.605118 555.368652,73.600922 
	C551.691162,72.503654 550.317200,70.922356 550.452637,67.031189 
	C550.748047,58.543102 550.543945,50.037632 550.543884,41.539261 
	C550.543823,32.621689 550.544250,32.632427 559.667419,32.238865 
	C560.438232,32.205616 561.197266,31.898861 562.004272,31.709169 
	C562.004272,24.845726 562.004272,18.244976 562.004272,11.342595 
	C521.541504,11.342595 481.320282,11.342595 440.929932,11.342595 
	C440.929932,18.348610 440.929932,25.066216 440.929932,32.025356 
	C444.639801,32.218281 448.022156,32.394176 451.654083,32.583050 
	C451.654083,44.354588 451.465210,55.510044 451.754974,66.653046 
	C451.858551,70.636459 450.322723,72.051796 446.739990,73.123756 
	C323.072632,110.125214 199.435196,147.226746 75.034180,184.580795 
M181.500092,550.758362 
	C136.907852,550.758362 92.315613,550.758362 47.597282,550.758362 
	C47.597282,570.205078 47.597282,588.918396 47.597282,607.566284 
	C349.985046,607.566284 651.994934,607.566284 953.816040,607.566284 
	C953.816040,588.453064 953.816040,569.736938 953.816040,550.758240 
	C696.390625,550.758240 439.445374,550.758240 181.500092,550.758362 
M265.500031,510.086334 
	C276.325531,509.976166 287.265228,510.827515 297.953125,509.558441 
	C321.210632,506.796906 339.761902,484.258606 339.807739,459.508942 
	C339.922821,397.358215 339.850311,335.207092 339.832153,273.056152 
	C339.831787,271.795654 339.576843,270.535217 339.454193,269.400146 
	C321.284515,269.400146 303.548798,269.400146 285.238159,269.400146 
	C285.238159,333.464661 285.238159,397.154785 285.238159,460.780182 
	C270.277832,460.780182 255.902924,460.780182 241.080688,460.780182 
	C241.080688,396.787018 241.080688,333.217285 241.080688,269.481689 
	C222.922653,269.481689 205.224197,269.481689 186.943619,269.481689 
	C186.943619,333.473236 186.943619,397.049438 186.943619,460.894104 
	C171.142471,460.894104 155.927231,460.894104 140.015564,460.894104 
	C140.015564,396.906525 140.015564,333.225708 140.015564,269.604126 
	C121.592964,269.604126 103.870377,269.604126 85.765808,269.604126 
	C85.765808,271.652496 85.765800,273.299347 85.765800,274.946198 
	C85.765854,335.597534 85.763664,396.248840 85.774414,456.900177 
	C85.774826,459.231262 85.812782,461.568604 85.979980,463.892487 
	C87.836227,489.691315 111.351768,511.397919 135.948425,510.105560 
	C153.893158,509.162659 171.929718,509.847321 189.923508,510.010132 
	C198.579178,510.088470 207.081268,510.165527 213.134232,501.825653 
	C218.988464,509.423065 226.760590,510.354462 235.008652,510.214111 
	C244.836990,510.046906 254.669403,510.119476 265.500031,510.086334 
M916.232605,395.500061 
	C916.231445,366.180511 916.287109,336.860840 916.207581,307.541504 
	C916.160461,290.156097 908.162659,278.723846 891.569763,273.530212 
	C884.825684,271.419312 877.555481,270.204651 870.491943,270.046967 
	C850.178345,269.593536 829.846741,269.756073 809.525391,269.977173 
	C804.239014,270.034698 798.873291,270.776917 793.700806,271.916443 
	C773.268433,276.417755 763.680359,288.501587 763.674622,309.390137 
	C763.656616,374.859650 763.667114,440.329132 763.666687,505.798645 
	C763.666687,507.588593 763.666748,509.378540 763.666748,511.470886 
	C780.262878,511.470886 796.298340,511.470886 812.935547,511.470886 
	C812.935547,485.080170 812.935547,459.036682 812.935547,432.864563 
	C831.258301,432.864563 848.977417,432.864563 867.261353,432.864563 
	C867.261353,459.288635 867.261353,485.334991 867.261353,511.540283 
	C883.740295,511.540283 899.650513,511.540283 916.232666,511.540283 
	C916.232666,473.005554 916.232666,434.752808 916.232605,395.500061 
M425.034363,271.369568 
	C401.427429,275.762207 388.011322,289.968506 385.255707,313.639435 
	C384.852448,317.103180 384.772003,320.620056 384.769562,324.112488 
	C384.738220,369.085480 384.722748,414.058502 384.791595,459.031403 
	C384.797699,463.006073 385.069855,467.047546 385.817505,470.943024 
	C390.515930,495.422058 409.165344,510.784180 433.962463,510.765228 
	C456.115417,510.748322 478.268951,510.589294 500.421082,510.707031 
	C509.497009,510.755280 517.488525,507.993591 524.514526,502.486969 
	C538.853394,491.248810 545.682678,476.316254 545.689392,458.195190 
	C545.706238,413.055634 545.708435,367.916046 545.668518,322.776520 
	C545.665466,319.286499 545.444763,315.779175 545.056946,312.309845 
	C542.524353,289.649109 528.374512,274.816681 505.764221,271.618988 
	C499.373138,270.715118 492.813232,270.769653 486.331665,270.784210 
	C466.188293,270.829529 446.045349,271.066711 425.034363,271.369568 
M669.500427,322.027527 
	C688.097595,322.027527 706.694824,322.027527 725.329102,322.027527 
	C725.329102,304.476227 725.329102,287.454865 725.329102,270.421387 
	C681.674438,270.421387 638.473450,270.421387 595.308472,270.421387 
	C595.308472,350.608154 595.308472,430.334503 595.308472,510.310394 
	C613.487976,510.310394 631.358459,510.310394 649.797974,510.310394 
	C649.797974,484.253113 649.797974,458.540924 649.797974,432.177795 
	C675.387390,432.177795 700.414734,432.177795 725.715698,432.177795 
	C725.715698,415.705933 725.591003,399.890961 725.803955,384.080536 
	C725.856750,380.159515 724.813538,378.960327 720.797546,378.998810 
	C698.976257,379.207886 677.152222,379.126282 655.329102,379.144318 
	C653.575867,379.145782 651.822632,379.144501 650.137878,379.144501 
	C650.137878,359.668304 650.137878,340.965424 650.137878,322.027191 
	C656.542358,322.027191 662.521484,322.027191 669.500427,322.027527 
z"/>
<path fill="#FCFCFC" opacity="1.000000" stroke="none" 
	d="
M75.413834,184.447388 
	C199.435196,147.226746 323.072632,110.125214 446.739990,73.123756 
	C450.322723,72.051796 451.858551,70.636459 451.754974,66.653046 
	C451.465210,55.510044 451.654083,44.354588 451.654083,32.583050 
	C448.022156,32.394176 444.639801,32.218281 440.929932,32.025356 
	C440.929932,25.066216 440.929932,18.348610 440.929932,11.342595 
	C481.320282,11.342595 521.541504,11.342595 562.004272,11.342595 
	C562.004272,18.244976 562.004272,24.845726 562.004272,31.709169 
	C561.197266,31.898861 560.438232,32.205616 559.667419,32.238865 
	C550.544250,32.632427 550.543823,32.621689 550.543884,41.539261 
	C550.543945,50.037632 550.748047,58.543102 550.452637,67.031189 
	C550.317200,70.922356 551.691162,72.503654 555.368652,73.600922 
	C619.060425,92.605118 682.711243,111.746780 746.369019,130.865021 
	C826.120483,154.816666 905.870361,178.773727 985.619263,202.733688 
	C987.194092,203.206818 988.749329,203.744766 990.973083,204.466522 
	C985.669861,220.870682 980.435425,237.061996 975.063171,253.679459 
	C969.292664,252.046371 964.042725,250.580521 958.804199,249.075150 
	C807.366821,205.558105 655.933960,162.025421 504.467194,118.611015 
	C501.788788,117.843323 498.510132,117.805321 495.839417,118.570740 
	C340.682678,163.038544 185.560715,207.627625 30.433823,252.199570 
	C29.499464,252.468033 28.543287,252.660553 26.931347,253.049011 
	C21.664427,236.820084 16.445784,220.739914 10.957809,203.829865 
	C32.465897,197.368652 53.750038,190.974731 75.413834,184.447388 
z"/>
<path fill="#FDFDFD" opacity="1.000000" stroke="none" 
	d="
M182.000092,550.758301 
	C439.445374,550.758240 696.390625,550.758240 953.816040,550.758240 
	C953.816040,569.736938 953.816040,588.453064 953.816040,607.566284 
	C651.994934,607.566284 349.985046,607.566284 47.597282,607.566284 
	C47.597282,588.918396 47.597282,570.205078 47.597282,550.758362 
	C92.315613,550.758362 136.907852,550.758362 182.000092,550.758301 
z"/>
<path fill="#FCFCFC" opacity="1.000000" stroke="none" 
	d="
M265.000061,510.087219 
	C254.669403,510.119476 244.836990,510.046906 235.008652,510.214111 
	C226.760590,510.354462 218.988464,509.423065 213.134232,501.825653 
	C207.081268,510.165527 198.579178,510.088470 189.923508,510.010132 
	C171.929718,509.847321 153.893158,509.162659 135.948425,510.105560 
	C111.351768,511.397919 87.836227,489.691315 85.979980,463.892487 
	C85.812782,461.568604 85.774826,459.231262 85.774414,456.900177 
	C85.763664,396.248840 85.765854,335.597534 85.765800,274.946198 
	C85.765800,273.299347 85.765808,271.652496 85.765808,269.604126 
	C103.870377,269.604126 121.592964,269.604126 140.015564,269.604126 
	C140.015564,333.225708 140.015564,396.906525 140.015564,460.894104 
	C155.927231,460.894104 171.142471,460.894104 186.943619,460.894104 
	C186.943619,397.049438 186.943619,333.473236 186.943619,269.481689 
	C205.224197,269.481689 222.922653,269.481689 241.080688,269.481689 
	C241.080688,333.217285 241.080688,396.787018 241.080688,460.780182 
	C255.902924,460.780182 270.277832,460.780182 285.238159,460.780182 
	C285.238159,397.154785 285.238159,333.464661 285.238159,269.400146 
	C303.548798,269.400146 321.284515,269.400146 339.454193,269.400146 
	C339.576843,270.535217 339.831787,271.795654 339.832153,273.056152 
	C339.850311,335.207092 339.922821,397.358215 339.807739,459.508942 
	C339.761902,484.258606 321.210632,506.796906 297.953125,509.558441 
	C287.265228,510.827515 276.325531,509.976166 265.000061,510.087219 
z"/>
<path fill="#FCFCFC" opacity="1.000000" stroke="none" 
	d="
M916.232666,396.000061 
	C916.232666,434.752808 916.232666,473.005554 916.232666,511.540283 
	C899.650513,511.540283 883.740295,511.540283 867.261353,511.540283 
	C867.261353,485.334991 867.261353,459.288635 867.261353,432.864563 
	C848.977417,432.864563 831.258301,432.864563 812.935547,432.864563 
	C812.935547,459.036682 812.935547,485.080170 812.935547,511.470886 
	C796.298340,511.470886 780.262878,511.470886 763.666748,511.470886 
	C763.666748,509.378540 763.666687,507.588593 763.666687,505.798645 
	C763.667114,440.329132 763.656616,374.859650 763.674622,309.390137 
	C763.680359,288.501587 773.268433,276.417755 793.700806,271.916443 
	C798.873291,270.776917 804.239014,270.034698 809.525391,269.977173 
	C829.846741,269.756073 850.178345,269.593536 870.491943,270.046967 
	C877.555481,270.204651 884.825684,271.419312 891.569763,273.530212 
	C908.162659,278.723846 916.160461,290.156097 916.207581,307.541504 
	C916.287109,336.860840 916.231445,366.180511 916.232666,396.000061 
M813.034546,323.931549 
	C813.034546,342.365082 813.034546,360.798584 813.034546,379.454895 
	C831.332764,379.454895 849.042114,379.454895 866.920654,379.454895 
	C866.920654,360.046356 866.920654,340.987640 866.920654,321.955872 
	C866.152771,321.731232 865.682922,321.474335 865.212463,321.473389 
	C848.891052,321.440399 832.569458,321.401917 816.248535,321.487610 
	C815.188354,321.493134 814.133301,322.479248 813.034546,323.931549 
z"/>
<path fill="#FCFCFC" opacity="1.000000" stroke="none" 
	d="
M425.468292,271.299500 
	C446.045349,271.066711 466.188293,270.829529 486.331665,270.784210 
	C492.813232,270.769653 499.373138,270.715118 505.764221,271.618988 
	C528.374512,274.816681 542.524353,289.649109 545.056946,312.309845 
	C545.444763,315.779175 545.665466,319.286499 545.668518,322.776520 
	C545.708435,367.916046 545.706238,413.055634 545.689392,458.195190 
	C545.682678,476.316254 538.853394,491.248810 524.514526,502.486969 
	C517.488525,507.993591 509.497009,510.755280 500.421082,510.707031 
	C478.268951,510.589294 456.115417,510.748322 433.962463,510.765228 
	C409.165344,510.784180 390.515930,495.422058 385.817505,470.943024 
	C385.069855,467.047546 384.797699,463.006073 384.791595,459.031403 
	C384.722748,414.058502 384.738220,369.085480 384.769562,324.112488 
	C384.772003,320.620056 384.852448,317.103180 385.255707,313.639435 
	C388.011322,289.968506 401.427429,275.762207 425.468292,271.299500 
M494.892456,351.500000 
	C494.892456,341.555817 494.892456,331.611633 494.892456,321.599609 
	C474.996155,321.599609 455.625885,321.599609 436.003204,321.599609 
	C436.003204,368.280945 436.003204,414.511688 436.003204,460.802429 
	C455.709229,460.802429 475.072449,460.802429 494.892456,460.802429 
	C494.892456,424.430908 494.892456,388.465454 494.892456,351.500000 
z"/>
<path fill="#FBFBFB" opacity="1.000000" stroke="none" 
	d="
M669.000488,322.027344 
	C662.521484,322.027191 656.542358,322.027191 650.137878,322.027191 
	C650.137878,340.965424 650.137878,359.668304 650.137878,379.144501 
	C651.822632,379.144501 653.575867,379.145782 655.329102,379.144318 
	C677.152222,379.126282 698.976257,379.207886 720.797546,378.998810 
	C724.813538,378.960327 725.856750,380.159515 725.803955,384.080536 
	C725.591003,399.890961 725.715698,415.705933 725.715698,432.177795 
	C700.414734,432.177795 675.387390,432.177795 649.797974,432.177795 
	C649.797974,458.540924 649.797974,484.253113 649.797974,510.310394 
	C631.358459,510.310394 613.487976,510.310394 595.308472,510.310394 
	C595.308472,430.334503 595.308472,350.608154 595.308472,270.421387 
	C638.473450,270.421387 681.674438,270.421387 725.329102,270.421387 
	C725.329102,287.454865 725.329102,304.476227 725.329102,322.027527 
	C706.694824,322.027527 688.097595,322.027527 669.000488,322.027344 
z"/>
<path fill="#060606" opacity="1.000000" stroke="none" 
	d="
M813.055176,323.470398 
	C814.133301,322.479248 815.188354,321.493134 816.248535,321.487610 
	C832.569458,321.401917 848.891052,321.440399 865.212463,321.473389 
	C865.682922,321.474335 866.152771,321.731232 866.920654,321.955872 
	C866.920654,340.987640 866.920654,360.046356 866.920654,379.454895 
	C849.042114,379.454895 831.332764,379.454895 813.034546,379.454895 
	C813.034546,360.798584 813.034546,342.365082 813.055176,323.470398 
z"/>
<path fill="#030303" opacity="1.000000" stroke="none" 
	d="
M494.892456,352.000000 
	C494.892456,388.465454 494.892456,424.430908 494.892456,460.802429 
	C475.072449,460.802429 455.709229,460.802429 436.003204,460.802429 
	C436.003204,414.511688 436.003204,368.280945 436.003204,321.599609 
	C455.625885,321.599609 474.996155,321.599609 494.892456,321.599609 
	C494.892456,331.611633 494.892456,341.555817 494.892456,352.000000 
z"/>
</svg>